<?xml version="1.0" ?><svg data-name="레이어 1" id="레이어_1" viewBox="0 0 40 40" xmlns="http://www.w3.org/2000/svg"><path d="M31.69,22.74l-1.42,1.41a.77.77,0,0,0,0,1.08.78.78,0,0,0,.55.23.81.81,0,0,0,.54-.22l2.73-2.72h0a.85.85,0,0,0,.17-.25.73.73,0,0,0,.06-.3.72.72,0,0,0-.06-.29.85.85,0,0,0-.17-.25h0l-2.66-2.64a.76.76,0,0,0-1.08,1.08l1.35,1.34H26.84a.77.77,0,1,0,0,1.53Z"/><path d="M34.93,14.16H26a3.13,3.13,0,0,0-3.08,3.17.9.9,0,1,0,1.8,0A1.32,1.32,0,0,1,26,16h8.92a1.32,1.32,0,0,1,1.27,1.37v9.31A1.32,1.32,0,0,1,34.93,28H27.29a.9.9,0,0,0,0,1.8h7.64A3.13,3.13,0,0,0,38,26.64V17.33A3.13,3.13,0,0,0,34.93,14.16Z"/><path d="M17.91,17.7a7.2,7.2,0,0,0-4.34-13,7.28,7.28,0,0,0-7.32,7.22,7.2,7.2,0,0,0,3,5.81C5.05,18.81,2,22.23,2,26.27v8.16a.9.9,0,0,0,.9.9H24.25a.9.9,0,0,0,.9-.9V26.27C25.15,22.23,22.09,18.81,17.91,17.7ZM8.05,11.89a5.52,5.52,0,1,1,5.52,5.43A5.48,5.48,0,0,1,8.05,11.89Zm15.3,21.64H3.8V26.27c0-3.94,3.74-7.15,8.34-7.15H15c4.6,0,8.35,3.21,8.35,7.15Z"/></svg>