<?xml version="1.0" standalone="no"?>
<!DOCTYPE svg PUBLIC "-//W3C//DTD SVG 20010904//EN"
 "http://www.w3.org/TR/2001/REC-SVG-20010904/DTD/svg10.dtd">
<svg version="1.0" xmlns="http://www.w3.org/2000/svg"
 width="4096.000000pt" height="4096.000000pt" viewBox="0 0 4096.000000 4096.000000"
 preserveAspectRatio="xMidYMid meet">

<g transform="translate(0.000000,4096.000000) scale(0.100000,-0.100000)"
fill="#877b66" stroke="none">
<path d="M16350 38393 c-532 -28 -981 -103 -1475 -243 -1211 -346 -2332 -1078
-3145 -2055 -721 -865 -1206 -1907 -1394 -2995 -81 -466 -88 -583 -93 -1542
l-5 -838 -1960 0 c-2172 0 -2070 3 -2275 -65 -225 -75 -411 -198 -566 -375
-147 -167 -253 -383 -292 -592 -8 -46 -594 -5868 -1301 -12938 -1183 -11827
-1285 -12865 -1280 -12975 30 -609 489 -1113 1091 -1200 100 -14 1304 -15
13205 -12 9919 2 13129 6 13235 15 626 53 1068 115 1535 218 2586 566 4845
2108 6323 4316 392 585 732 1226 985 1858 613 1527 846 3134 696 4785 -112
1236 -451 2438 -1004 3560 -218 443 -409 773 -676 1171 -1326 1981 -3283 3433
-5554 4119 -1011 305 -2074 451 -3135 432 -181 -4 -360 -10 -397 -13 l-67 -7
-5 34 c-3 19 -150 1502 -326 3297 -177 1795 -328 3299 -336 3343 -40 210 -153
438 -296 594 -168 185 -334 294 -559 369 -207 69 -103 66 -2277 66 l-1960 0
-5 838 c-5 864 -7 925 -52 1277 -100 785 -385 1629 -785 2325 -1027 1787
-2825 2974 -4845 3199 -313 35 -730 49 -1005 34z m730 -2578 c1671 -202 3024
-1465 3335 -3115 57 -303 58 -333 62 -1187 l4 -793 -3841 0 -3841 0 4 798 c4
858 6 882 62 1182 295 1556 1523 2784 3075 3074 121 23 316 48 455 60 112 9
556 -3 685 -19z m-6837 -9667 l3 -2013 21 -85 c72 -287 205 -510 413 -693 182
-160 413 -266 651 -301 620 -91 1205 270 1404 867 68 205 65 103 65 2276 l0
1961 3840 0 3840 0 3 -2012 3 -2013 21 -85 c72 -287 205 -510 413 -693 182
-160 413 -266 651 -301 620 -91 1205 270 1404 867 68 205 65 103 65 2276 l0
1961 1339 0 1339 0 6 -47 c19 -154 546 -5558 543 -5567 -3 -6 -51 -26 -108
-45 -365 -118 -816 -305 -1234 -511 -443 -218 -773 -409 -1171 -676 -2266
-1516 -3831 -3857 -4358 -6516 -134 -674 -191 -1268 -191 -1998 0 -533 19
-838 81 -1320 251 -1959 1071 -3807 2364 -5325 266 -313 582 -638 925 -952
l90 -83 -8705 0 -8706 0 1152 11518 c634 6334 1153 11518 1153 11520 1 1 604
2 1341 2 l1340 0 3 -2012z m19582 -5678 c1289 -70 2472 -428 3555 -1078 1744
-1046 3008 -2739 3503 -4697 535 -2110 154 -4345 -1046 -6145 -989 -1482
-2460 -2580 -4147 -3094 -1253 -383 -2597 -438 -3885 -161 -1785 384 -3400
1423 -4509 2899 -1181 1572 -1704 3501 -1485 5481 104 944 401 1901 849 2735
900 1676 2372 2956 4145 3605 955 349 2017 509 3020 455z"/>
<path d="M29240 17903 c-229 -35 -462 -144 -640 -300 -208 -183 -342 -407
-413 -693 -21 -84 -21 -98 -24 -1457 l-4 -1373 -1321 0 c-1464 0 -1436 1
-1635 -65 -441 -147 -760 -505 -859 -965 -14 -63 -18 -128 -18 -250 0 -122 4
-187 18 -250 99 -460 418 -818 859 -965 199 -66 171 -65 1635 -65 l1321 0 4
-1372 c3 -1360 3 -1374 24 -1458 71 -286 205 -510 413 -693 182 -160 413 -266
651 -301 620 -91 1205 270 1404 867 66 199 65 171 65 1636 l0 1321 1321 0
c1467 0 1437 -1 1638 66 392 130 685 424 816 817 174 524 -16 1107 -471 1438
-89 65 -224 133 -345 173 -201 67 -171 66 -1638 66 l-1321 0 0 1321 c0 1465 1
1437 -65 1636 -73 218 -182 386 -359 552 -268 252 -675 373 -1056 314z"/>
</g>
</svg>
