<?xml version="1.0" ?><svg style="enable-background:new 0 0 64 64;" version="1.1" viewBox="0 0 64 64" xml:space="preserve" xmlns="http://www.w3.org/2000/svg" xmlns:xlink="http://www.w3.org/1999/xlink"><style type="text/css">
	.st0{fill:#231F20;}
	.st1{fill:none;stroke:#231F20;stroke-width:2;stroke-miterlimit:10;}
	.st2{fill:#FFFFFF;}
</style><g id="Grid"/><g id="Proyektor"/><g id="Laptop"/><g id="Papan"/><g id="Kursi"/><g id="Meja"/><g id="Book"/><g id="News"/><g id="Note"/><g id="Calculator"/><g id="Ruler"><g><g><g><rect class="st0" height="8" width="2" x="7" y="23"/></g></g><g><g><rect class="st0" height="4" width="2" x="11" y="23"/></g></g><g><g><rect class="st0" height="4" width="2" x="15" y="23"/></g></g><g><g><rect class="st0" height="8" width="2" x="19" y="23"/></g></g><g><g><rect class="st0" height="4" width="2" x="23" y="23"/></g></g><g><g><rect class="st0" height="4" width="2" x="27" y="23"/></g></g><g><g><rect class="st0" height="8" width="2" x="31" y="23"/></g></g><g><g><rect class="st0" height="4" width="2" x="35" y="23"/></g></g><g><g><rect class="st0" height="4" width="2" x="39" y="23"/></g></g><g><g><rect class="st0" height="4" width="2" x="47" y="23"/></g></g><g><g><rect class="st0" height="4" width="2" x="51" y="23"/></g></g><g><g><rect class="st0" height="8" width="2" x="55" y="23"/></g></g><g><g><rect class="st0" height="8" width="2" x="43" y="23"/></g></g><g><g><path class="st0" d="M60,42H4c-1.1,0-2-0.9-2-2V24c0-1.1,0.9-2,2-2h56c1.1,0,2,0.9,2,2v16C62,41.1,61.1,42,60,42z M4,40h56V24H4      V40z"/></g></g></g></g><g id="Pencil"/><g id="Clock"/><g id="Document"/><g id="Galeri"/><g id="Storage_Pencil"/><g id="Tras_Can"/><g id="Stempel"/><g id="_x2E_.."/><g id="Clip"/><g id="Board"/></svg>